<?xml version="1.0" encoding="utf-8"?>
<!-- Svg Vector Icons : http://www.onlinewebfonts.com/icon -->
<!DOCTYPE svg PUBLIC "-//W3C//DTD SVG 1.1//EN" "http://www.w3.org/Graphics/SVG/1.1/DTD/svg11.dtd">
<svg version="1.1" xmlns="http://www.w3.org/2000/svg" xmlns:xlink="http://www.w3.org/1999/xlink" x="0px" y="0px" viewBox="0 0 1000 1000" enable-background="new 0 0 1000 1000" xml:space="preserve">
<metadata> Svg Vector Icons : http://www.onlinewebfonts.com/icon </metadata>
<g><g transform="translate(0.000000,511.000000) scale(0.100000,-0.100000)"><path d="M3147.6,4975.5c-190.1-67.5-323-200.3-396.6-392.5c-57.2-151.3-51.1-312.8,20.4-507c128.8-347.5,128.8-623.5,2-799.3c-59.3-79.7-325-253.5-535.6-349.6c-239.2-108.3-447.7-24.5-785,321c-271.9,276-349.6,318.9-580.6,318.9c-188.1,0-304.6-45-447.7-179.9c-141.1-130.8-194.2-261.7-196.2-470.2c0-139,8.2-181.9,57.2-280.1c108.3-218.7,286.2-335.3,562.2-365.9c212.6-22.5,433.4-122.7,570.4-257.6c124.7-124.7,155.4-243.3,145.1-584.6c-10.2-380.2-57.2-460-368-627.6c-130.8-69.5-186-87.9-329.1-102.2c-284.2-28.6-476.3-153.3-586.7-378.2c-71.6-147.2-71.6-404.8,0-552c229-466.1,850.4-504.9,1142.7-73.6c98.1,143.1,159.5,196.3,339.4,296.4c149.2,85.9,298.5,112.5,423.2,77.7C2225.7,57,2473-73.9,2732.6-225.1L3204.9-497l-6.1-613.3c-6.1-582.6-8.2-617.4-51.1-695c-61.3-114.5-134.9-177.9-316.9-276c-130.8-69.5-186-87.9-329.1-102.2c-284.2-28.6-476.3-153.3-586.7-378.2c-71.6-147.2-71.6-404.8,0-552c229-466.1,850.4-504.9,1144.8-73.6c100.2,151.3,177.9,214.6,388.4,325c179.9,94,310.7,110.4,451.8,61.3c116.5-40.9,433.4-239.2,492.7-308.7c141.1-163.5,153.3-464.1,34.7-719.6c-134.9-284.2-96.1-568.3,108.3-772.7c141.1-141.1,253.5-188.1,455.9-188.1c134.9,0,184,10.2,276,53.1c241.2,114.5,376.1,327.1,376.1,590.8c0,132.9-8.2,173.8-67.5,296.4c-59.3,120.6-71.5,171.7-79.7,329.1c-8.2,159.5-2.1,198.3,36.8,290.3c57.2,130.8,122.7,190.1,370,333.2c188.1,108.3,194.2,110.4,355.7,110.4c165.6,0,165.6,0,365.9-120.6c149.2-87.9,216.7-143.1,263.7-212.6c114.5-165.6,198.3-247.4,316.9-304.6c98.1-49,141.1-57.2,280.1-57.2c208.5,2,339.3,55.2,470.2,196.2c257.6,273.9,247.3,660.3-24.5,922c-106.3,104.3-243.3,159.5-437.5,179.9c-190.1,18.4-372.1,100.2-523.3,233c-165.6,145.2-169.7,161.5-169.7,854.5v605.1l445.7,257.6c247.4,141.1,480.4,271.9,521.3,288.3c134.9,55.2,257.6,40.9,445.6-55.2c184-94,276-175.8,380.2-327.1c233-343.4,723.7-374.1,1005.8-65.4c233,255.5,233,619.4,0,874.9c-122.7,134.9-251.5,194.2-472.2,216.7c-188.1,18.4-370,100.2-521.3,233c-147.2,128.8-169.7,198.3-169.7,531.5c0,157.4,10.2,318.9,24.5,361.8c36.8,124.7,145.1,233,335.2,337.3c149.2,81.8,194.2,96.1,341.4,108.3c204.4,18.4,329.1,71.6,443.6,186c245.3,245.3,257.6,627.6,30.7,895.4c-124.7,147.2-374.1,245.3-560.1,218.7c-161.5-22.5-341.4-122.7-431.3-241.2c-153.3-206.5-202.4-251.5-359.8-341.4c-151.3-85.9-169.7-92-314.8-92c-151.3,0-157.4,2-386.4,132.9c-376.1,214.6-443.6,325-427.2,688.9c8.2,173.8,18.4,218.7,79.7,343.4c59.3,124.7,67.5,163.5,67.5,296.4c0,257.6-126.7,464.1-361.8,588.8c-92,47-130.8,55.2-280.1,55.2c-149.2,0-190.1-8.2-290.3-57.2c-333.2-163.5-453.8-547.9-284.1-903.6c57.2-118.6,69.5-173.8,77.7-327.1c22.5-390.5-18.4-441.6-654.2-811.6l-486.5-282.1l-464,265.8c-637.8,365.9-695,433.4-672.6,787c6.1,114.5,30.7,224.9,77.7,357.7c118.6,335.3,81.8,584.7-112.4,782.9C3654.6,4989.8,3374.6,5057.3,3147.6,4975.5z M3532,4632.1c34.7-16.4,79.7-59.3,100.2-96.1c69.5-114.5,71.6-179.9,4.1-376.2c-83.8-239.2-112.4-423.2-102.2-629.6c8.2-145.1,20.4-194.2,83.8-321c38.9-81.8,108.4-184,151.3-224.9c42.9-40.9,298.5-202.4,568.3-359.8l490.6-282.1l6.1-850.4l4.1-850.4l-719.6-415c-396.6-229-731.8-419.1-746.2-423.2c-12.3-4.1-233,114.5-490.6,263.7c-255.5,149.2-519.2,288.2-584.7,308.7c-239.2,73.6-457.9,38.8-729.8-118.6c-194.2-110.4-286.2-192.2-384.3-333.2c-110.4-161.5-167.6-196.3-310.7-196.3c-128.8,0-194.2,32.7-273.9,141c-59.3,79.7-59.3,271.9,0,351.6c77.7,104.3,139,134.9,306.6,151.3c90,10.2,200.3,30.7,247.4,47c116.5,38.8,380.2,192.2,472.2,271.9c100.2,85.8,200.4,255.5,239.2,406.8c34.8,141.1,40.9,603.1,8.2,746.2c-53.2,237.1-212.6,433.4-468.1,580.6c-192.2,112.4-308.7,151.3-492.7,167.6c-222.8,22.5-343.4,124.7-359.8,308.7c-20.4,241.2,229,412.9,457.9,314.8c36.8-14.3,118.6-89.9,181.9-167.6c132.9-161.5,355.7-339.4,529.5-421.1c108.3-51.1,145.1-57.2,327.1-57.2c233,0,278,16.3,633.7,226.9c314.8,184,447.7,349.6,504.9,629.6c32.7,165.6-4.1,462-85.9,693c-32.7,96.1-61.3,210.6-61.3,255.5c0,106.3,69.5,206.5,184,265.8C3323.4,4691.3,3421.6,4689.3,3532,4632.1z M6829.4,4617.8c40.9-32.7,83.8-92,106.3-149.2c40.9-106.3,32.7-147.2-65.4-376.1c-51.1-116.5-59.3-165.6-65.4-380.2c-12.3-361.8,59.3-570.3,257.6-748.2c106.3-96.1,525.4-333.2,658.3-372.1c229-67.5,455.9-30.7,705.3,114.5c212.6,124.7,265.8,171.7,380.2,327.1c122.7,169.7,233.1,233,370,210.5c108.3-18.4,233-130.8,261.7-237.1c53.1-196.3-98.1-406.8-290.3-406.8c-239.2-2-609.2-163.5-799.3-353.7c-57.2-55.2-126.7-155.4-163.5-235.1c-63.4-134.9-65.4-143.1-71.6-478.4c-6.1-273.9,0-365.9,26.6-460c65.4-224.9,198.3-384.3,441.6-527.4c188.1-110.4,314.8-155.4,478.4-167.6c77.7-6.1,175.8-28.6,216.7-49.1c226.9-112.4,222.8-455.9-4.1-570.4c-145.2-75.6-298.5-38.8-398.6,94.1c-143.1,192.2-323,343.4-525.4,447.7l-202.4,102.2h-206.5c-251.4,0-249.4,0-860.7-355.7c-235.1-135-437.5-247.4-449.7-245.3c-12.2,0-343.4,186-738,415l-715.5,415l-4.1,856.5l-6.1,856.5l484.5,276c494.7,282.1,613.3,372.1,707.3,533.6c155.4,263.7,157.4,717.5,4.1,1020.1c-81.8,163.5-63.4,312.8,55.2,423.2C6526.8,4701.6,6706.7,4709.8,6829.4,4617.8z M5739.8-71.8L6473.7-497v-605.1c0-664.4,10.2-740,126.8-922c75.6-122.7,179.9-214.7,345.5-312.8c188.1-110.4,314.8-155.4,478.4-167.6c77.7-6.1,175.8-28.6,216.7-49.1c229-114.5,222.8-466.1-10.2-572.4c-153.3-69.5-292.3-36.8-392.5,96.1c-141.1,186-269.9,300.5-447.7,404.8c-235.1,139-349.6,175.8-533.5,175.8c-186,0-288.3-34.8-547.9-181.9c-255.5-145.1-382.3-265.8-468.1-445.7c-63.4-134.9-65.4-147.2-65.4-404.8c0-247.4,4.1-274,57.2-398.6c100.2-226.9,108.3-269.9,67.5-376.2c-53.1-139-151.3-206.5-300.5-206.5c-132.9,0-200.3,36.8-278,153.3c-65.4,94-61.3,210.6,14.3,370c134.9,288.3,137,623.5,6.1,889.2c-71.6,145.2-235.1,296.4-466.1,427.3c-265.8,149.2-372.1,179.9-588.7,169.7c-161.5-8.2-194.2-16.4-343.4-94c-253.5-132.9-384.3-226.9-466.1-337.3c-130.8-179.9-212.6-255.5-294.4-269.8c-122.7-22.5-218.7,6.1-302.6,90c-214.7,214.6-61.3,554,251.4,554c134.9,0,284.2,49.1,470.2,149.2c212.6,116.5,314.8,204.4,398.6,343.4c116.5,194.2,128.8,288.2,128.8,940.4v586.7l729.8,421.1c402.7,231,735.9,421.1,740,421.1C5003.8,351.4,5337.1,161.2,5739.8-71.8z"/><path d="M3744.6,2581.7c-104.3-26.6-186-79.7-263.7-169.7c-120.6-141.1-149.2-337.3-71.6-507c55.2-122.7,110.4-179.9,233-237.1c390.5-184,809.5,179.9,674.6,584.7C4237.2,2491.7,3981.7,2638.9,3744.6,2581.7z M3975.6,2197.3c130.8-145.1-92-341.4-235.1-206.5c-53.1,49.1-63.4,151.3-20.4,204.4C3791.6,2285.2,3895.8,2287.3,3975.6,2197.3z"/><path d="M2424,2252.5c-94-28.6-159.5-83.8-204.4-175.8c-104.3-216.7,51.1-457.9,292.3-457.9c194.2,0,331.2,147.2,316.9,343.4c-10.2,130.8-57.2,202.4-177.9,265.8C2556.8,2275,2511.9,2281.2,2424,2252.5z"/><path d="M3084.3,1428.7c-75.6-81.8-57.2-200.4,38.8-251.5c73.6-36.8,149.2-20.4,202.4,47c55.2,69.5,51.1,141.1-10.2,200.3C3249.9,1492.1,3145.6,1494.1,3084.3,1428.7z"/><path d="M4229.1,1265.2c-75.6-81.8-57.2-200.3,38.8-251.5c73.6-36.8,149.2-20.4,202.4,47c55.2,69.5,51.1,141-10.2,200.3C4394.6,1328.5,4290.4,1330.6,4229.1,1265.2z"/><path d="M2387.2,972.8c-55.2-71.6-53.2-134.9,4.1-204.4c34.8-40.9,67.5-55.2,116.5-55.2s81.8,14.3,116.5,55.2c57.2,69.5,59.3,132.9,4.1,204.4c-32.7,40.9-59.3,53.2-120.6,53.2S2419.9,1013.7,2387.2,972.8z"/><path d="M3343.9,813.4c-233-159.5-163.5-521.3,110.4-584.7c220.8-49.1,435.4,155.4,394.6,376.1c-16.4,83.8-94,184-177.9,226.9C3579,880.8,3429.8,870.6,3343.9,813.4z"/><path d="M6565.7,2577.6c-153.3-85.9-104.2-304.6,69.5-304.6c79.7,0,165.6,77.7,165.6,151.3C6800.8,2530.6,6653.6,2626.6,6565.7,2577.6z"/><path d="M7385.4,2416.1c-149.2-45-259.6-241.2-216.7-388.4c45-159.5,155.4-245.3,316.9-245.3c188.1,0,316.9,126.7,316.9,312.8c0,155.4-79.7,269.8-222.8,318.9C7499.9,2440.6,7469.2,2440.6,7385.4,2416.1z"/><path d="M5817.5,2039.9c-194.2-69.5-325-255.5-325-460c2-349.6,363.9-590.8,674.6-449.7c196.2,87.9,294.4,239.2,294.4,447.7c0,159.4-49.1,267.8-171.7,372.1C6158.8,2064.5,5979,2097.2,5817.5,2039.9z M6079.1,1700.6c59.3-55.2,75.6-114.5,47-181.9c-42.9-108.4-175.8-134.9-255.5-53.2C5727.5,1606.5,5934,1837.5,6079.1,1700.6z"/><path d="M7060.4,1287.6c-81.8-63.4-83.8-196.2-4.1-261.7c55.2-47,173.8-36.8,216.7,18.4c51.1,63.4,49.1,175.8-2,226.9C7223.9,1318.3,7113.5,1326.5,7060.4,1287.6z"/><path d="M6412.3,719.3C6310.1,658,6263.1,584.4,6252.9,472c-12.3-122.7,20.4-204.4,110.4-282.1c257.6-229,654.2,79.7,494.7,384.3c-63.4,122.7-134.9,169.7-265.8,179.9C6508.4,760.2,6467.5,752,6412.3,719.3z"/><path d="M4623.6-290.5c-122.7-57.2-177.9-114.5-233-237.1c-77.7-171.7-47-378.2,73.6-513.1c237.1-261.7,619.4-222.8,797.3,79.7c47,79.7,57.2,120.6,57.2,229c-2,151.3-38.8,245.3-139,347.5C5036.6-237.4,4815.8-200.6,4623.6-290.5z M4934.3-599.2c53.1-36.8,77.7-137,47-192.2c-34.8-67.5-114.5-110.4-173.8-96.1c-128.8,32.7-175.8,179.9-87.9,271.9C4770.8-560.4,4868.9-552.2,4934.3-599.2z"/><path d="M5639.6-452.1c-90-96.1-38.8-247.3,92-271.9c55.2-10.2,75.6-2,130.8,51.1c53.2,55.2,61.3,75.7,51.1,130.8C5889-409.1,5727.5-358,5639.6-452.1z"/><path d="M4024.6-1461.9c-110.4-53.1-157.4-139-157.4-286.2c0-96.1,10.2-139,42.9-184c151.3-202.4,451.8-177.8,560.1,47c77.7,159.4,14.3,345.5-145.1,427.2C4249.5-1417,4108.4-1419,4024.6-1461.9z"/><path d="M5572.1-1476.2c-177.9-120.6-190.1-392.5-26.6-521.3c134.9-106.3,316.9-96.1,433.4,24.5c155.4,159.5,116.5,415-77.7,515.2C5807.2-1408.8,5658-1419,5572.1-1476.2z"/><path d="M4889.4-2173.3c-143.1-141,63.4-372.1,210.6-235.1c57.2,55.2,75.6,126.7,42.9,188.1C5085.6-2112,4971.1-2089.5,4889.4-2173.3z"/></g></g>
</svg>