<?xml version="1.0" encoding="UTF-8"?>
<svg xmlns="http://www.w3.org/2000/svg" viewBox="0 0 16 16">
    <path style="line-height:normal;text-indent:0;text-align:start;text-decoration-line:none;text-decoration-style:solid;text-decoration-color:#000;text-transform:none;block-progression:tb;isolation:auto;mix-blend-mode:normal" d="M 11.125 1 C 9.9776895 1 9.0985426 1.4493532 8.46875 2.0859375 C 7.8389574 2.7225218 7.4298684 3.5205548 7.0527344 4.2773438 C 6.7372434 4.9107969 6.0458833 5.5546688 5.1738281 5.6171875 C 2.9203765 5.7770383 1.0204074 7.4733805 1 9.7714844 C 0.97949658 12.094067 2.977015 14 5.6953125 14 L 5.75 14 C 9.2589315 14 11.622875 12.511144 13.048828 10.667969 C 14.474781 8.824793 15 6.6695066 15 5.1914062 C 15 2.9359603 13.444649 1 11.125 1 z M 11.125 2 C 12.907351 2 14 3.3688522 14 5.1914062 C 14 6.4223059 13.521611 8.4230658 12.257812 10.056641 C 10.994015 11.690215 8.9820685 13 5.75 13 L 5.6953125 13 C 3.4276095 13 1.9845034 11.536668 2 9.78125 C 2.0155926 8.0253538 3.4395453 6.7433836 5.2460938 6.6152344 C 6.5500386 6.521753 7.4967566 5.627203 7.9472656 4.7226562 C 8.3181316 3.9784452 8.6967301 3.2772282 9.1796875 2.7890625 C 9.6626449 2.3008968 10.22131 2 11.125 2 z M 9.5 6 A 0.5 0.5 0 0 0 9 6.5 A 0.5 0.5 0 0 0 9.5 7 A 0.5 0.5 0 0 0 10 6.5 A 0.5 0.5 0 0 0 9.5 6 z M 5.5 8 C 4.6774952 8 4 8.6774952 4 9.5 C 4 10.322505 4.6774952 11 5.5 11 C 6.3225048 11 7 10.322505 7 9.5 C 7 8.6774952 6.3225048 8 5.5 8 z M 5.5 9 C 5.7820647 9 6 9.2179353 6 9.5 C 6 9.7820647 5.7820647 10 5.5 10 C 5.2179353 10 5 9.7820647 5 9.5 C 5 9.2179353 5.2179353 9 5.5 9 z M 9 9 C 8.4536376 9 8 9.4536376 8 10 C 8 10.546362 8.4536376 11 9 11 C 9.5463624 11 10 10.546362 10 10 C 10 9.4536376 9.5463624 9 9 9 z" font-weight="400" font-family="sans-serif" white-space="normal" overflow="visible"/>
</svg>