<?xml version="1.0" standalone="no"?>
<!DOCTYPE svg PUBLIC "-//W3C//DTD SVG 20010904//EN"
 "http://www.w3.org/TR/2001/REC-SVG-20010904/DTD/svg10.dtd">
<svg version="1.0" xmlns="http://www.w3.org/2000/svg"
 width="1280.000000pt" height="819.000000pt" viewBox="0 0 1280.000000 819.000000"
 preserveAspectRatio="xMidYMid meet">
<g transform="translate(0.000000,819.000000) scale(0.100000,-0.100000)"
fill="#000000" stroke="none">
<path d="M8650 8184 c-132 -13 -535 -67 -600 -80 -41 -9 -104 -26 -140 -39
-36 -12 -544 -252 -1130 -533 -2560 -1225 -2993 -1432 -2997 -1428 -2 2 -18
57 -35 122 -24 92 -37 126 -59 149 -35 36 -57 28 -77 -30 -11 -35 -9 -49 24
-167 20 -70 35 -130 33 -133 -16 -16 -344 -164 -349 -158 -4 4 -64 114 -135
243 -125 230 -146 261 -192 280 -30 12 -48 5 -62 -26 -25 -56 -15 -82 125
-327 75 -131 135 -240 133 -242 -6 -6 -694 -334 -708 -337 -6 -2 -32 35 -56
82 -74 139 -138 182 -185 123 -30 -38 -23 -71 39 -184 28 -51 50 -93 48 -95
-3 -3 -302 -148 -452 -219 -38 -19 -98 -52 -131 -74 l-62 -40 -161 193 c-159
192 -186 216 -242 216 -29 0 -52 -54 -40 -93 6 -18 83 -115 170 -216 l159
-183 -125 -100 c-69 -55 -164 -138 -213 -184 -48 -46 -91 -84 -95 -84 -4 0
-70 50 -147 111 -77 60 -152 115 -166 120 -41 16 -72 4 -72 -29 0 -47 34 -86
161 -182 68 -51 128 -97 134 -102 5 -5 -9 -27 -37 -56 -172 -179 -356 -440
-473 -671 -31 -61 -60 -111 -66 -111 -5 0 -61 11 -125 25 -139 30 -160 31
-201 5 -35 -21 -39 -35 -22 -74 16 -35 60 -53 183 -76 60 -11 111 -22 113 -24
3 -2 -7 -39 -21 -80 -33 -101 -74 -293 -82 -394 l-7 -82 -116 0 c-99 0 -121
-3 -149 -20 -41 -25 -39 -46 7 -77 30 -20 46 -23 141 -23 l107 0 7 -38 c3 -20
6 -57 6 -81 0 -34 15 -147 33 -255 1 -5 -60 -19 -135 -31 -142 -24 -190 -44
-203 -85 -9 -28 12 -60 50 -76 30 -12 47 -11 162 11 146 28 173 30 173 12 0
-29 94 -260 155 -381 36 -71 64 -130 63 -131 -2 0 -58 -24 -125 -52 -216 -91
-278 -146 -257 -230 6 -26 20 -45 44 -61 59 -40 117 -29 295 55 83 39 158 73
167 76 13 4 29 -11 63 -59 98 -137 239 -294 389 -432 56 -51 102 -97 104 -102
2 -5 -45 -92 -104 -194 -100 -173 -106 -188 -101 -227 6 -46 19 -59 58 -59 45
0 74 35 163 198 47 86 91 165 98 175 12 15 19 13 83 -32 60 -42 304 -185 329
-194 5 -2 1 -17 -8 -34 -21 -42 -21 -107 1 -128 33 -33 106 6 148 79 10 17 16
16 106 -17 121 -46 235 -79 369 -107 58 -13 110 -24 116 -25 7 -2 3 -45 -14
-133 -24 -129 -24 -131 -6 -169 15 -30 25 -39 50 -41 46 -4 79 39 93 122 6 36
16 96 22 132 l11 66 38 -6 c154 -24 537 -29 733 -9 l57 6 0 -167 c0 -147 2
-172 20 -206 22 -44 47 -56 83 -39 52 24 59 57 56 251 l-4 178 45 6 c195 27
512 98 687 153 l92 29 21 -57 c12 -31 28 -75 37 -99 16 -44 67 -92 96 -92 24
0 57 49 57 84 0 17 -16 71 -34 119 l-35 88 27 10 c15 6 63 24 106 40 130 48
216 89 302 140 45 27 86 49 90 49 5 -1 60 -77 123 -170 112 -166 145 -200 193
-200 26 0 48 35 48 75 0 32 -17 62 -115 201 -63 90 -115 167 -115 171 1 6 680
419 709 431 3 1 76 -55 161 -125 120 -98 163 -128 195 -134 72 -13 104 30 76
104 -5 14 -69 71 -145 128 -74 57 -135 107 -135 110 -1 4 927 561 2062 1239
1134 678 2114 1267 2177 1308 63 41 151 103 195 137 359 280 635 806 722 1375
23 157 23 453 0 610 -48 310 -161 605 -331 864 l-64 97 46 20 c73 32 256 85
377 110 183 38 355 27 540 -33 183 -59 309 -156 370 -283 52 -109 66 -174 72
-340 6 -170 -3 -264 -48 -465 -50 -223 -50 -371 2 -585 11 -44 62 -206 114
-360 108 -323 124 -387 132 -546 12 -242 -59 -425 -256 -657 -57 -68 -180
-167 -296 -239 -188 -117 -382 -194 -935 -372 -1033 -330 -1459 -491 -1930
-726 -671 -335 -1095 -667 -1221 -955 -20 -47 -24 -71 -24 -160 0 -99 2 -109
34 -174 24 -49 63 -99 144 -184 179 -189 181 -206 70 -479 -9 -22 93 26 127
60 48 47 63 84 63 157 0 95 -23 164 -124 365 -100 202 -117 260 -99 353 15 81
51 149 120 225 110 119 228 196 625 407 625 332 823 404 1950 705 726 194
1092 316 1410 471 199 97 327 219 423 403 108 207 175 535 176 861 0 182 -11
241 -103 529 -104 325 -112 362 -112 516 0 76 10 164 31 285 16 96 33 216 36
265 11 157 -23 434 -77 620 -38 131 -50 160 -109 280 -128 256 -255 356 -550
431 -52 14 -150 30 -217 36 -271 26 -615 -40 -939 -178 l-104 -45 -103 87
c-115 97 -283 212 -434 298 -265 150 -587 254 -1008 326 -117 20 -362 33 -455
24z"/>
</g>
</svg>
