<?xml version="1.0" encoding="iso-8859-1"?>
<!-- Generator: Adobe Illustrator 19.2.0, SVG Export Plug-In . SVG Version: 6.00 Build 0)  -->
<svg version="1.1"  xmlns="http://www.w3.org/2000/svg" xmlns:xlink="http://www.w3.org/1999/xlink" x="0px" y="0px"
	 viewBox="0 0 40 40" style="enable-background:new 0 0 40 40;" xml:space="preserve">
<g>
	<path style="fill:#BAE0BD;" d="M16.607,38.5c-5.192,0-9.107-3.869-9.107-9c0-2.473,0.909-3.893,1.711-5.146
		C9.874,23.32,10.5,22.343,10.5,21c0-1.449-0.231-2.493-0.475-3.599C9.767,16.234,9.5,15.028,9.5,13.214
		C9.5,6.427,14.176,1.5,20.62,1.5c6.662,0,11.88,5.146,11.88,11.714c0,14.251-5.923,24.379-14.74,25.204
		C17.312,38.475,16.951,38.5,16.607,38.5z"/>
	<path style="fill:#5E9C76;" d="M20.62,2C27.001,2,32,6.926,32,13.214c0,13.978-5.741,23.907-14.319,24.71
		C17.271,37.976,16.929,38,16.607,38C11.7,38,8,34.346,8,29.5c0-2.327,0.83-3.623,1.633-4.876C10.305,23.575,11,22.489,11,21
		c0-1.503-0.248-2.623-0.487-3.706C10.261,16.153,10,14.973,10,13.214C10,6.716,14.466,2,20.62,2 M20.62,1
		C13.776,1,9,6.371,9,13.214c0,3.563,1,4.855,1,7.786c0,2.75-3,3.863-3,8.5c0,5.655,4.36,9.5,9.607,9.5
		c0.407,0,0.806-0.034,1.199-0.084C26.971,38.059,33,27.467,33,13.214C33,6.371,27.463,1,20.62,1L20.62,1z"/>
</g>
<path style="fill:none;stroke:#5E9C76;stroke-width:1.2;stroke-miterlimit:10;stroke-dasharray:1,3;" d="M16.578,37.652
	c0.303,0,0.628-0.023,1.02-0.073C25.862,36.806,31.6,26.764,31.6,13.155c0-6.06-4.821-10.807-10.975-10.807
	c-5.915,0-10.208,4.545-10.208,10.807c0,1.719,0.246,2.83,0.506,4.006c0.247,1.119,0.503,2.276,0.503,3.848
	c0,1.65-0.742,2.808-1.459,3.928C9.161,26.195,8.4,27.383,8.4,29.583C8.4,34.183,11.916,37.652,16.578,37.652z"/>
<circle style="fill:#5E9C76;" cx="21" cy="13" r="4"/>
<circle style="fill:#5E9C76;" cx="16.5" cy="29.5" r="2.5"/>
<circle style="fill:#5E9C76;" cx="24.5" cy="23.5" r="1.5"/>
</svg>
